<svg width="613" height="142" viewBox="0 0 613 142" fill="none" xmlns="http://www.w3.org/2000/svg">
<g clip-path="url(#clip0_33_15)">
<path d="M414.4 17.2C412.533 22.9333 408.933 27.3333 403.6 30.4C398.267 33.4667 391.6 35 383.6 35C377.2 35 370.533 34.4667 363.6 33.4C356.667 32.2 349.733 30.7333 342.8 29C341.067 33.5333 339.8 38.5333 339 44C338.333 49.3333 337.467 55.1333 336.4 61.4C334.933 70.2 333 79.1333 330.6 88.2C328.2 97.2667 325 105.533 321 113C317 120.467 311.8 126.133 305.4 130C302.6 131.6 299.933 133.267 297.4 135C295 136.733 292.267 138.2 289.2 139.4C286.267 140.6 282.467 141.2 277.8 141.2C271.8 141.2 267.267 140.067 264.2 137.8C261.267 135.667 259.267 132.6 258.2 128.6C257.267 124.6 256.8 119.867 256.8 114.4C256.8 113.467 257 111.733 257.4 109.2C257.933 106.667 258.467 104.133 259 101.6C259.667 99.0667 260.267 97.3333 260.8 96.4C261.733 94.2667 263.333 91.6 265.6 88.4C268 85.2 270.733 82 273.8 78.8C276.867 75.6 280 72.9333 283.2 70.8C286.4 68.6667 289.333 67.6 292 67.6C293.067 67.6 294.267 68.4667 295.6 70.2C297.067 71.8 298.333 73.6667 299.4 75.8C300.467 77.9333 301 79.7333 301 81.2C301 81.7333 300.733 83 300.2 85C299.8 86.8667 298.933 89 297.6 91.4C296.267 93.6667 294.267 95.6667 291.6 97.4C291.067 97.5333 290.533 97.6 290 97.6C289.6 97.6 289.133 97.6 288.6 97.6C284.867 97.6 283 96.8667 283 95.4C283 94.2 284.2 93.1333 286.6 92.2C289 91.1333 290.8 90.5333 292 90.4C293.333 90.2667 294.2 89.7333 294.6 88.8C295 87.7333 295.2 85.4667 295.2 82C295.2 81.3333 295 80.3333 294.6 79C294.333 77.6667 293.933 76.4 293.4 75.2C293 74 292.533 73.4 292 73.4C289.733 73.4 287.467 74.4 285.2 76.4C283.067 78.4 281.067 80.8667 279.2 83.8C277.333 86.7333 275.667 89.6667 274.2 92.6C272.733 95.4 271.667 97.7333 271 99.6C270.733 100.4 270.267 101.733 269.6 103.6C268.933 105.333 268.333 107.133 267.8 109C267.267 110.733 267 112.067 267 113C267 114.733 266.933 116.533 266.8 118.4C266.8 120.133 266.8 121.733 266.8 123.2C266.8 126.8 267.4 129.733 268.6 132C269.933 134.267 273 135.4 277.8 135.4C281.933 135.4 285.333 134.667 288 133.2C290.8 131.6 293.2 129.733 295.2 127.6C297.333 125.333 299.4 123.133 301.4 121C309.533 112.733 315.867 103.667 320.4 93.8C325.067 83.8 328.4 72.6667 330.4 60.4C331.467 53.8667 332.6 48 333.8 42.8C335.133 37.4667 336.867 32.5333 339 28C332.2 26.1333 325.667 24.2667 319.4 22.4C313.267 20.4 307.667 18.6667 302.6 17.2C299.8 16.2667 297.4 15.4 295.4 14.6C293.533 13.6667 290.6 13.2 286.6 13.2C283.667 13.2 280.733 13.6 277.8 14.4C275 15.0667 273.6 16.8 273.6 19.6C273.6 20.4 273.533 21.3333 273.4 22.4C273.4 23.4667 273.4 24.5333 273.4 25.6C273.4 28.1333 273.733 30.7333 274.4 33.4C275.067 35.9333 276.467 38.1333 278.6 40C280.733 41.7333 284.067 42.7333 288.6 43C290.467 43.1333 291.933 42.7333 293 41.8C294.2 40.8667 295.2 39.9333 296 39C296.533 37.6667 297.533 37 299 37C300.333 37 301 37.9333 301 39.8C301 40.2 300.933 40.6 300.8 41C300.8 41.4 300.733 41.8667 300.6 42.4C299.267 44 297.667 45.5333 295.8 47C294.067 48.3333 291.667 49 288.6 49C286.333 49 283.733 48.6 280.8 47.8C278 46.8667 275.267 45.2667 272.6 43C269.933 40.6 267.8 37.3333 266.2 33.2C264.733 28.9333 264.2 23.5333 264.6 17C264.867 14.3333 265.867 11.8 267.6 9.39999C269.467 6.99999 271.733 5.06666 274.4 3.6C277.2 1.99999 279.933 1.19999 282.6 1.19999C284.733 1.19999 287.4 1.53333 290.6 2.19999C293.8 2.86666 297.067 3.66666 300.4 4.6C303.867 5.53333 307 6.46666 309.8 7.4C312.733 8.33333 315 9.06666 316.6 9.59999C320.867 10.9333 325.2 12.6 329.6 14.6C334 16.4667 338.533 18.3333 343.2 20.2C343.467 19.8 343.733 19.4 344 19C344.4 18.6 344.733 18.1333 345 17.6C346.467 15.6 347.933 14.6 349.4 14.6C350.067 14.6 350.4 14.9333 350.4 15.6C350.4 16.8 349.467 18.4 347.6 20.4C347.467 20.5333 347.333 20.7333 347.2 21C347.067 21.1333 346.867 21.3333 346.6 21.6C352.733 24 359 26.0667 365.4 27.8C371.8 29.5333 378.467 30.4 385.4 30.4C398.2 30.4 406.2 25.9333 409.4 17C409.533 13.5333 410.267 11.8 411.6 11.8C412.267 11.8 412.867 12.3333 413.4 13.4C414.067 14.4667 414.4 15.7333 414.4 17.2Z" fill="#9CA3AF"/>
<path d="M401.712 92.144L401.072 125.168C404.742 125.424 408.411 126.021 412.08 126.96L411.824 131.44C410.459 132.123 407.984 132.891 404.4 133.744C400.902 134.512 397.446 134.896 394.032 134.896C392.496 131.824 391.643 128.88 391.472 126.064C381.744 132.464 374.918 135.664 370.992 135.664C364.934 135.664 360.07 134.043 356.4 130.8C352.731 127.557 350.896 123.035 350.896 117.232C350.896 103.835 359.088 96.9227 375.472 96.496C385.03 96.24 389.851 96.112 389.936 96.112L389.808 91.76C389.638 85.872 388.528 81.648 386.48 79.088C384.432 76.4427 380.763 75.12 375.472 75.12C373.254 75.12 370.864 75.632 368.304 76.656L365.232 89.456C364.806 89.5413 364.08 89.584 363.056 89.584L357.808 89.2C356.443 85.5307 355.718 80.4533 355.632 73.968C357.254 73.1147 360.966 71.8347 366.768 70.128C372.571 68.336 376.283 67.44 377.904 67.44C386.608 67.44 392.752 69.36 396.336 73.2C399.92 77.04 401.712 83.3547 401.712 92.144ZM373.808 126.96C376.283 126.96 382 124.187 390.96 118.64L390.32 102.64C384.518 103.152 379.654 103.621 375.728 104.048C371.803 104.475 368.646 105.627 366.256 107.504C363.867 109.296 362.672 112.155 362.672 116.08C362.672 123.333 366.384 126.96 373.808 126.96ZM436.536 38.128C439.182 38.128 441.059 38.2133 442.168 38.384C442.168 41.0293 441.614 44.4427 440.504 48.624C439.992 71.152 439.736 88.176 439.736 99.696L460.344 77.68L450.104 76.656C450.104 74.2667 450.83 71.7067 452.28 68.976H484.792L485.176 74.608C483.214 75.376 479.63 76.3573 474.424 77.552L456.888 93.424L478.52 125.296L489.272 126.32C489.272 128.709 488.547 131.269 487.096 134H469.56L449.592 99.952L439.608 109.04C439.438 116.208 439.352 121.627 439.352 125.296L450.104 126.32C450.104 128.709 449.379 131.269 447.928 134H418.488L418.104 129.52C422.03 128.155 425.87 127.131 429.624 126.448C429.112 91.9733 428.686 65.904 428.344 48.24C423.651 47.984 419.896 47.472 417.08 46.704L417.592 40.048C421.944 38.768 428.259 38.128 436.536 38.128ZM527.393 126.832C531.148 126.832 537.036 125.04 545.057 121.456C546.679 123.675 547.532 125.637 547.617 127.344C543.265 129.904 538.999 131.909 534.817 133.36C530.636 134.811 527.649 135.536 525.857 135.536C515.959 135.536 508.407 132.592 503.201 126.704C497.996 120.731 495.393 112.411 495.393 101.744C495.393 91.0773 497.911 82.7147 502.945 76.656C508.065 70.512 515.703 67.44 525.857 67.44C533.708 67.44 539.681 70.256 543.777 75.888C547.959 81.52 550.049 89.072 550.049 98.544C549.367 99.7387 548.812 100.549 548.385 100.976L507.169 100.336C507.255 108.955 508.748 115.525 511.649 120.048C514.636 124.571 519.884 126.832 527.393 126.832ZM538.401 93.04C538.401 87.408 537.377 83.056 535.329 79.984C533.281 76.8267 529.868 75.248 525.089 75.248C520.311 75.248 516.044 76.144 512.289 77.936C509.729 83.056 508.108 88.304 507.425 93.68C514.167 93.5947 524.492 93.3813 538.401 93.04ZM599.677 78.192C599.251 77.7653 598.312 77.552 596.861 77.552C595.411 77.552 593.235 78.064 590.333 79.088C587.517 80.112 584.957 81.3067 582.653 82.672C582.141 101.616 581.8 115.824 581.629 125.296L592.381 126.32C592.381 128.709 591.656 131.269 590.205 134H560.765L560.381 129.52C564.307 128.155 568.147 127.131 571.901 126.448C571.389 104.773 570.963 88.7307 570.621 78.32C565.928 78.064 562.173 77.552 559.357 76.784L559.869 70.128C564.392 68.848 571.091 68.208 579.965 68.208C581.331 70.3413 582.184 73.072 582.525 76.4C592.339 70.4267 598.184 67.44 600.061 67.44C601.939 67.44 604.115 67.824 606.589 68.592C609.064 69.2747 610.899 70.0427 612.093 70.896C612.093 79.4293 611.283 86.384 609.661 91.76C608.467 92.1013 607.059 92.272 605.437 92.272C603.901 92.272 602.835 92.2293 602.237 92.144L599.677 78.192Z" fill="#F8FAFC"/>
<path d="M42.544 67.44C50.736 67.44 56.6667 69.488 60.336 73.584C64.0053 77.5947 65.84 83.7387 65.84 92.016C65.84 94.4053 65.4987 105.499 64.816 125.296L75.568 126.32C75.568 128.709 74.8427 131.269 73.392 134H43.952L43.568 129.52C47.4933 128.155 51.3333 127.131 55.088 126.448C54.576 104.091 54.1067 91.6747 53.68 89.2C53.3387 86.64 52.7413 84.4213 51.888 82.544C51.0347 80.6667 49.7547 79.344 48.048 78.576C46.3413 77.808 44.08 77.424 41.264 77.424C35.632 77.424 30.1707 78.7893 24.88 81.52C24.368 100.976 24.0267 115.568 23.856 125.296L34.608 126.32C34.608 128.709 33.8827 131.269 32.432 134H2.992L2.608 129.52C6.53333 128.155 10.3733 127.131 14.128 126.448C13.616 104.773 13.1893 88.7307 12.848 78.32C8.15467 78.064 4.4 77.552 1.584 76.784L2.096 70.128C6.704 68.848 13.4027 68.208 22.192 68.208C23.216 69.744 23.984 71.9627 24.496 74.864C28.1653 72.9013 31.8347 71.1947 35.504 69.744C39.2587 68.208 41.6053 67.44 42.544 67.44ZM111.051 127.856C118.219 127.856 123.04 125.637 125.515 121.2C128.075 116.677 129.355 110.277 129.355 102C129.355 88.8587 126.454 80.624 120.651 77.296C118.262 75.9307 114.891 75.248 110.539 75.248C106.272 75.248 102.219 76.144 98.379 77.936C94.9657 84.5067 93.259 92.144 93.259 100.848C93.259 109.211 94.3683 115.653 96.587 120.176C99.147 125.296 103.968 127.856 111.051 127.856ZM81.483 102C81.483 91.1627 83.9577 82.7147 88.907 76.656C93.8563 70.512 101.494 67.44 111.819 67.44C122.144 67.44 129.611 70.256 134.219 75.888C138.827 81.4347 141.131 89.6693 141.131 100.592C141.131 111.515 138.656 120.091 133.707 126.32C128.843 132.549 121.419 135.664 111.435 135.664C101.451 135.664 93.9417 132.763 88.907 126.96C83.9577 121.157 81.483 112.837 81.483 102ZM159.83 126.064L158.806 77.808H148.95L148.566 73.328C149.419 72.7307 151.894 71.6213 155.99 70L166.486 53.616C168.193 53.7867 169.515 54.2133 170.454 54.896L170.326 68.976C176.726 68.976 181.974 69.4027 186.07 70.256C186.07 72.56 185.345 75.0773 183.894 77.808H170.07C169.899 88.048 169.729 103.579 169.558 124.4C174.337 124.656 179.115 125.509 183.894 126.96L183.766 131.44C182.571 132.208 179.499 133.104 174.55 134.128C169.686 135.152 165.675 135.664 162.518 135.664C162.091 134.981 161.537 133.531 160.854 131.312C160.171 129.008 159.83 127.259 159.83 126.064ZM227.37 126.832C231.125 126.832 237.013 125.04 245.034 121.456C246.655 123.675 247.509 125.637 247.594 127.344C243.242 129.904 238.975 131.909 234.794 133.36C230.613 134.811 227.626 135.536 225.834 135.536C215.935 135.536 208.383 132.592 203.178 126.704C197.973 120.731 195.37 112.411 195.37 101.744C195.37 91.0773 197.887 82.7147 202.922 76.656C208.042 70.512 215.679 67.44 225.834 67.44C233.685 67.44 239.658 70.256 243.754 75.888C247.935 81.52 250.026 89.072 250.026 98.544C249.343 99.7387 248.789 100.549 248.362 100.976L207.146 100.336C207.231 108.955 208.725 115.525 211.626 120.048C214.613 124.571 219.861 126.832 227.37 126.832ZM238.378 93.04C238.378 87.408 237.354 83.056 235.306 79.984C233.258 76.8267 229.845 75.248 225.066 75.248C220.287 75.248 216.021 76.144 212.266 77.936C209.706 83.056 208.085 88.304 207.402 93.68C214.143 93.5947 224.469 93.3813 238.378 93.04Z" fill="#F8FAFC"/>
</g>
<defs>
<clipPath id="clip0_33_15">
<rect width="613" height="142" fill="white"/>
</clipPath>
</defs>
</svg>
