<svg width="612" height="142" viewBox="0 0 612 142" fill="none" xmlns="http://www.w3.org/2000/svg">
<g clip-path="url(#clip0_33_16)">
<path d="M413.4 17.2C411.533 22.9333 407.933 27.3333 402.6 30.4C397.267 33.4667 390.6 35 382.6 35C376.2 35 369.533 34.4667 362.6 33.4C355.667 32.2 348.733 30.7333 341.8 29C340.067 33.5333 338.8 38.5333 338 44C337.333 49.3333 336.467 55.1333 335.4 61.4C333.933 70.2 332 79.1333 329.6 88.2C327.2 97.2667 324 105.533 320 113C316 120.467 310.8 126.133 304.4 130C301.6 131.6 298.933 133.267 296.4 135C294 136.733 291.267 138.2 288.2 139.4C285.267 140.6 281.467 141.2 276.8 141.2C270.8 141.2 266.267 140.067 263.2 137.8C260.267 135.667 258.267 132.6 257.2 128.6C256.267 124.6 255.8 119.867 255.8 114.4C255.8 113.467 256 111.733 256.4 109.2C256.933 106.667 257.467 104.133 258 101.6C258.667 99.0667 259.267 97.3333 259.8 96.4C260.733 94.2667 262.333 91.6 264.6 88.4C267 85.2 269.733 82 272.8 78.8C275.867 75.6 279 72.9333 282.2 70.8C285.4 68.6667 288.333 67.6 291 67.6C292.067 67.6 293.267 68.4667 294.6 70.2C296.067 71.8 297.333 73.6667 298.4 75.8C299.467 77.9333 300 79.7333 300 81.2C300 81.7333 299.733 83 299.2 85C298.8 86.8667 297.933 89 296.6 91.4C295.267 93.6667 293.267 95.6667 290.6 97.4C290.067 97.5333 289.533 97.6 289 97.6C288.6 97.6 288.133 97.6 287.6 97.6C283.867 97.6 282 96.8667 282 95.4C282 94.2 283.2 93.1333 285.6 92.2C288 91.1333 289.8 90.5333 291 90.4C292.333 90.2667 293.2 89.7333 293.6 88.8C294 87.7333 294.2 85.4667 294.2 82C294.2 81.3333 294 80.3333 293.6 79C293.333 77.6667 292.933 76.4 292.4 75.2C292 74 291.533 73.4 291 73.4C288.733 73.4 286.467 74.4 284.2 76.4C282.067 78.4 280.067 80.8667 278.2 83.8C276.333 86.7333 274.667 89.6667 273.2 92.6C271.733 95.4 270.667 97.7333 270 99.6C269.733 100.4 269.267 101.733 268.6 103.6C267.933 105.333 267.333 107.133 266.8 109C266.267 110.733 266 112.067 266 113C266 114.733 265.933 116.533 265.8 118.4C265.8 120.133 265.8 121.733 265.8 123.2C265.8 126.8 266.4 129.733 267.6 132C268.933 134.267 272 135.4 276.8 135.4C280.933 135.4 284.333 134.667 287 133.2C289.8 131.6 292.2 129.733 294.2 127.6C296.333 125.333 298.4 123.133 300.4 121C308.533 112.733 314.867 103.667 319.4 93.8C324.067 83.8 327.4 72.6667 329.4 60.4C330.467 53.8667 331.6 48 332.8 42.8C334.133 37.4667 335.867 32.5333 338 28C331.2 26.1333 324.667 24.2667 318.4 22.4C312.267 20.4 306.667 18.6667 301.6 17.2C298.8 16.2667 296.4 15.4 294.4 14.6C292.533 13.6667 289.6 13.2 285.6 13.2C282.667 13.2 279.733 13.6 276.8 14.4C274 15.0667 272.6 16.8 272.6 19.6C272.6 20.4 272.533 21.3333 272.4 22.4C272.4 23.4667 272.4 24.5333 272.4 25.6C272.4 28.1333 272.733 30.7333 273.4 33.4C274.067 35.9333 275.467 38.1333 277.6 40C279.733 41.7333 283.067 42.7333 287.6 43C289.467 43.1333 290.933 42.7333 292 41.8C293.2 40.8667 294.2 39.9333 295 39C295.533 37.6667 296.533 37 298 37C299.333 37 300 37.9333 300 39.8C300 40.2 299.933 40.6 299.8 41C299.8 41.4 299.733 41.8667 299.6 42.4C298.267 44 296.667 45.5333 294.8 47C293.067 48.3333 290.667 49 287.6 49C285.333 49 282.733 48.6 279.8 47.8C277 46.8667 274.267 45.2667 271.6 43C268.933 40.6 266.8 37.3333 265.2 33.2C263.733 28.9333 263.2 23.5333 263.6 17C263.867 14.3333 264.867 11.8 266.6 9.39999C268.467 6.99999 270.733 5.06666 273.4 3.6C276.2 1.99999 278.933 1.19999 281.6 1.19999C283.733 1.19999 286.4 1.53333 289.6 2.19999C292.8 2.86666 296.067 3.66666 299.4 4.6C302.867 5.53333 306 6.46666 308.8 7.4C311.733 8.33333 314 9.06666 315.6 9.59999C319.867 10.9333 324.2 12.6 328.6 14.6C333 16.4667 337.533 18.3333 342.2 20.2C342.467 19.8 342.733 19.4 343 19C343.4 18.6 343.733 18.1333 344 17.6C345.467 15.6 346.933 14.6 348.4 14.6C349.067 14.6 349.4 14.9333 349.4 15.6C349.4 16.8 348.467 18.4 346.6 20.4C346.467 20.5333 346.333 20.7333 346.2 21C346.067 21.1333 345.867 21.3333 345.6 21.6C351.733 24 358 26.0667 364.4 27.8C370.8 29.5333 377.467 30.4 384.4 30.4C397.2 30.4 405.2 25.9333 408.4 17C408.533 13.5333 409.267 11.8 410.6 11.8C411.267 11.8 411.867 12.3333 412.4 13.4C413.067 14.4667 413.4 15.7333 413.4 17.2Z" fill="#9CA3AF"/>
<path d="M400.712 92.144L400.072 125.168C403.742 125.424 407.411 126.021 411.08 126.96L410.824 131.44C409.459 132.123 406.984 132.891 403.4 133.744C399.902 134.512 396.446 134.896 393.032 134.896C391.496 131.824 390.643 128.88 390.472 126.064C380.744 132.464 373.918 135.664 369.992 135.664C363.934 135.664 359.07 134.043 355.4 130.8C351.731 127.557 349.896 123.035 349.896 117.232C349.896 103.835 358.088 96.9227 374.472 96.496C384.03 96.24 388.851 96.112 388.936 96.112L388.808 91.76C388.638 85.872 387.528 81.648 385.48 79.088C383.432 76.4427 379.763 75.12 374.472 75.12C372.254 75.12 369.864 75.632 367.304 76.656L364.232 89.456C363.806 89.5413 363.08 89.584 362.056 89.584L356.808 89.2C355.443 85.5307 354.718 80.4533 354.632 73.968C356.254 73.1147 359.966 71.8347 365.768 70.128C371.571 68.336 375.283 67.44 376.904 67.44C385.608 67.44 391.752 69.36 395.336 73.2C398.92 77.04 400.712 83.3547 400.712 92.144ZM372.808 126.96C375.283 126.96 381 124.187 389.96 118.64L389.32 102.64C383.518 103.152 378.654 103.621 374.728 104.048C370.803 104.475 367.646 105.627 365.256 107.504C362.867 109.296 361.672 112.155 361.672 116.08C361.672 123.333 365.384 126.96 372.808 126.96ZM435.536 38.128C438.182 38.128 440.059 38.2133 441.168 38.384C441.168 41.0293 440.614 44.4427 439.504 48.624C438.992 71.152 438.736 88.176 438.736 99.696L459.344 77.68L449.104 76.656C449.104 74.2667 449.83 71.7067 451.28 68.976H483.792L484.176 74.608C482.214 75.376 478.63 76.3573 473.424 77.552L455.888 93.424L477.52 125.296L488.272 126.32C488.272 128.709 487.547 131.269 486.096 134H468.56L448.592 99.952L438.608 109.04C438.438 116.208 438.352 121.627 438.352 125.296L449.104 126.32C449.104 128.709 448.379 131.269 446.928 134H417.488L417.104 129.52C421.03 128.155 424.87 127.131 428.624 126.448C428.112 91.9733 427.686 65.904 427.344 48.24C422.651 47.984 418.896 47.472 416.08 46.704L416.592 40.048C420.944 38.768 427.259 38.128 435.536 38.128ZM526.393 126.832C530.148 126.832 536.036 125.04 544.057 121.456C545.679 123.675 546.532 125.637 546.617 127.344C542.265 129.904 537.999 131.909 533.817 133.36C529.636 134.811 526.649 135.536 524.857 135.536C514.959 135.536 507.407 132.592 502.201 126.704C496.996 120.731 494.393 112.411 494.393 101.744C494.393 91.0773 496.911 82.7147 501.945 76.656C507.065 70.512 514.703 67.44 524.857 67.44C532.708 67.44 538.681 70.256 542.777 75.888C546.959 81.52 549.049 89.072 549.049 98.544C548.367 99.7387 547.812 100.549 547.385 100.976L506.169 100.336C506.255 108.955 507.748 115.525 510.649 120.048C513.636 124.571 518.884 126.832 526.393 126.832ZM537.401 93.04C537.401 87.408 536.377 83.056 534.329 79.984C532.281 76.8267 528.868 75.248 524.089 75.248C519.311 75.248 515.044 76.144 511.289 77.936C508.729 83.056 507.108 88.304 506.425 93.68C513.167 93.5947 523.492 93.3813 537.401 93.04ZM598.677 78.192C598.251 77.7653 597.312 77.552 595.861 77.552C594.411 77.552 592.235 78.064 589.333 79.088C586.517 80.112 583.957 81.3067 581.653 82.672C581.141 101.616 580.8 115.824 580.629 125.296L591.381 126.32C591.381 128.709 590.656 131.269 589.205 134H559.765L559.381 129.52C563.307 128.155 567.147 127.131 570.901 126.448C570.389 104.773 569.963 88.7307 569.621 78.32C564.928 78.064 561.173 77.552 558.357 76.784L558.869 70.128C563.392 68.848 570.091 68.208 578.965 68.208C580.331 70.3413 581.184 73.072 581.525 76.4C591.339 70.4267 597.184 67.44 599.061 67.44C600.939 67.44 603.115 67.824 605.589 68.592C608.064 69.2747 609.899 70.0427 611.093 70.896C611.093 79.4293 610.283 86.384 608.661 91.76C607.467 92.1013 606.059 92.272 604.437 92.272C602.901 92.272 601.835 92.2293 601.237 92.144L598.677 78.192Z" fill="black"/>
<path d="M41.544 67.44C49.736 67.44 55.6667 69.488 59.336 73.584C63.0053 77.5947 64.84 83.7387 64.84 92.016C64.84 94.4053 64.4987 105.499 63.816 125.296L74.568 126.32C74.568 128.709 73.8427 131.269 72.392 134H42.952L42.568 129.52C46.4933 128.155 50.3333 127.131 54.088 126.448C53.576 104.091 53.1067 91.6747 52.68 89.2C52.3387 86.64 51.7413 84.4213 50.888 82.544C50.0347 80.6667 48.7547 79.344 47.048 78.576C45.3413 77.808 43.08 77.424 40.264 77.424C34.632 77.424 29.1707 78.7893 23.88 81.52C23.368 100.976 23.0267 115.568 22.856 125.296L33.608 126.32C33.608 128.709 32.8827 131.269 31.432 134H1.992L1.608 129.52C5.53333 128.155 9.37333 127.131 13.128 126.448C12.616 104.773 12.1893 88.7307 11.848 78.32C7.15467 78.064 3.4 77.552 0.584 76.784L1.096 70.128C5.704 68.848 12.4027 68.208 21.192 68.208C22.216 69.744 22.984 71.9627 23.496 74.864C27.1653 72.9013 30.8347 71.1947 34.504 69.744C38.2587 68.208 40.6053 67.44 41.544 67.44ZM110.051 127.856C117.219 127.856 122.04 125.637 124.515 121.2C127.075 116.677 128.355 110.277 128.355 102C128.355 88.8587 125.454 80.624 119.651 77.296C117.262 75.9307 113.891 75.248 109.539 75.248C105.272 75.248 101.219 76.144 97.379 77.936C93.9657 84.5067 92.259 92.144 92.259 100.848C92.259 109.211 93.3683 115.653 95.587 120.176C98.147 125.296 102.968 127.856 110.051 127.856ZM80.483 102C80.483 91.1627 82.9577 82.7147 87.907 76.656C92.8563 70.512 100.494 67.44 110.819 67.44C121.144 67.44 128.611 70.256 133.219 75.888C137.827 81.4347 140.131 89.6693 140.131 100.592C140.131 111.515 137.656 120.091 132.707 126.32C127.843 132.549 120.419 135.664 110.435 135.664C100.451 135.664 92.9417 132.763 87.907 126.96C82.9577 121.157 80.483 112.837 80.483 102ZM158.83 126.064L157.806 77.808H147.95L147.566 73.328C148.419 72.7307 150.894 71.6213 154.99 70L165.486 53.616C167.193 53.7867 168.515 54.2133 169.454 54.896L169.326 68.976C175.726 68.976 180.974 69.4027 185.07 70.256C185.07 72.56 184.345 75.0773 182.894 77.808H169.07C168.899 88.048 168.729 103.579 168.558 124.4C173.337 124.656 178.115 125.509 182.894 126.96L182.766 131.44C181.571 132.208 178.499 133.104 173.55 134.128C168.686 135.152 164.675 135.664 161.518 135.664C161.091 134.981 160.537 133.531 159.854 131.312C159.171 129.008 158.83 127.259 158.83 126.064ZM226.37 126.832C230.125 126.832 236.013 125.04 244.034 121.456C245.655 123.675 246.509 125.637 246.594 127.344C242.242 129.904 237.975 131.909 233.794 133.36C229.613 134.811 226.626 135.536 224.834 135.536C214.935 135.536 207.383 132.592 202.178 126.704C196.973 120.731 194.37 112.411 194.37 101.744C194.37 91.0773 196.887 82.7147 201.922 76.656C207.042 70.512 214.679 67.44 224.834 67.44C232.685 67.44 238.658 70.256 242.754 75.888C246.935 81.52 249.026 89.072 249.026 98.544C248.343 99.7387 247.789 100.549 247.362 100.976L206.146 100.336C206.231 108.955 207.725 115.525 210.626 120.048C213.613 124.571 218.861 126.832 226.37 126.832ZM237.378 93.04C237.378 87.408 236.354 83.056 234.306 79.984C232.258 76.8267 228.845 75.248 224.066 75.248C219.287 75.248 215.021 76.144 211.266 77.936C208.706 83.056 207.085 88.304 206.402 93.68C213.143 93.5947 223.469 93.3813 237.378 93.04Z" fill="black"/>
</g>
<defs>
<clipPath id="clip0_33_16">
<rect width="612" height="142" fill="white"/>
</clipPath>
</defs>
</svg>
